<svg xmlns="http://www.w3.org/2000/svg" xmlns:xlink="http://www.w3.org/1999/xlink" width="500" zoomAndPan="magnify" viewBox="0 0 375 374.999991" height="500" preserveAspectRatio="xMidYMid meet" version="1.0"><path fill="#0ca2ee" d="M 275.671875 148.570312 L 367.523438 94.675781 C 374.480469 90.660156 374.226562 80.644531 367.523438 76.820312 L 275.671875 22.988281 C 268.777344 18.90625 260.097656 23.882812 260.097656 31.917969 L 260.097656 57.046875 L 154.964844 57.046875 C 84.75 57.054688 27.621094 114.136719 27.621094 184.292969 L 27.621094 246.027344 L 85.070312 212.289062 L 85.070312 184.292969 C 85.070312 145.769531 116.410156 114.453125 154.964844 114.453125 L 260.097656 114.453125 L 260.097656 139.648438 C 260.097656 147.617188 268.777344 152.59375 275.671875 148.574219 Z M 275.671875 148.570312 " fill-opacity="1" fill-rule="nonzero"/><path fill="#1e3a7b" d="M 99.367188 226.128906 L 7.515625 280.023438 C 0.554688 284.042969 0.8125 294.054688 7.515625 297.882812 L 99.367188 351.710938 C 106.261719 355.792969 114.941406 350.816406 114.941406 342.78125 L 114.941406 317.652344 L 220.074219 317.652344 C 290.289062 317.652344 347.417969 260.570312 347.417969 190.414062 L 347.417969 128.675781 L 289.96875 162.414062 L 289.96875 190.414062 C 289.96875 228.9375 258.628906 260.25 220.074219 260.25 L 114.941406 260.25 L 114.941406 235.058594 C 114.941406 227.085938 106.261719 222.113281 99.367188 226.128906 Z M 99.367188 226.128906 " fill-opacity="1" fill-rule="nonzero"/></svg>